# Blender 4.1.0
# www.blender.org
mtllib handle_1.mtl
o Handle_1
v -0.080000 0.020002 0.005022
v -0.080000 0.030000 0.005022
v -0.080000 0.020002 -0.005022
v -0.080000 0.030000 -0.005022
v -0.069859 0.020002 -0.005022
v -0.069859 0.030000 -0.005022
v -0.069859 0.020002 0.005022
v -0.069859 0.030000 0.005022
v -0.080000 0.000002 -0.005022
v -0.080000 0.000002 0.005022
v -0.069859 0.000002 -0.005022
v -0.069859 0.000002 0.005022
v 0.080000 0.020002 0.005022
v 0.080000 0.030000 0.005022
v 0.080000 0.020002 -0.005022
v 0.080000 0.030000 -0.005022
v 0.000000 0.020002 0.005022
v 0.000000 0.030000 0.005022
v 0.000000 0.020002 -0.005022
v 0.000000 0.030000 -0.005022
v 0.069859 0.020002 -0.005022
v 0.069859 0.030000 -0.005022
v 0.069859 0.020002 0.005022
v 0.069859 0.030000 0.005022
v 0.080000 0.000002 -0.005022
v 0.080000 0.000002 0.005022
v 0.069859 0.000002 -0.005022
v 0.069859 0.000002 0.005022
vn -1.0000 -0.0000 -0.0000
vn -0.0000 -0.0000 -1.0000
vn -0.0000 -0.0000 1.0000
vn -0.0000 -1.0000 -0.0000
vn -0.0000 1.0000 -0.0000
vn 1.0000 -0.0000 -0.0000
vt 0.375000 0.000000
vt 0.625000 0.000000
vt 0.625000 0.250000
vt 0.375000 0.250000
vt 0.375000 0.266706
vt 0.625000 0.266706
vt 0.625000 0.500000
vt 0.375000 0.500000
vt 0.375000 0.983294
vt 0.625000 0.983294
vt 0.625000 1.000000
vt 0.375000 1.000000
vt 0.141706 0.500000
vt 0.375000 0.750000
vt 0.141706 0.750000
vt 0.858294 0.500000
vt 0.875000 0.500000
vt 0.875000 0.750000
vt 0.858294 0.750000
vt 0.625000 0.750000
vt 0.125000 0.500000
vt 0.125000 0.750000
s 0
usemtl handle_material
f 1/1/1 2/2/1 4/3/1 3/4/1
f 5/5/2 6/6/2 20/7/2 19/8/2
f 7/9/3 8/10/3 2/11/3 1/12/3
f 5/13/4 19/8/4 17/14/4 7/15/4
f 6/16/5 4/17/5 2/18/5 8/19/5
f 20/7/5 6/16/5 8/19/5 18/20/5
f 3/4/2 5/5/2 11/5/2 9/4/2
f 17/14/3 18/20/3 8/10/3 7/9/3
f 3/4/2 4/3/2 6/6/2 5/5/2
f 9/21/4 11/13/4 12/15/4 10/22/4
f 1/1/1 3/4/1 9/4/1 10/1/1
f 7/9/3 1/12/3 10/12/3 12/9/3
f 5/13/6 7/15/6 12/15/6 11/13/6
f 13/1/6 15/4/6 16/3/6 14/2/6
f 21/5/2 19/8/2 20/7/2 22/6/2
f 23/9/3 13/12/3 14/11/3 24/10/3
f 21/13/4 23/15/4 17/14/4 19/8/4
f 22/16/5 24/19/5 14/18/5 16/17/5
f 20/7/5 18/20/5 24/19/5 22/16/5
f 15/4/2 25/4/2 27/5/2 21/5/2
f 17/14/3 23/9/3 24/10/3 18/20/3
f 15/4/2 21/5/2 22/6/2 16/3/2
f 25/21/4 26/22/4 28/15/4 27/13/4
f 13/1/6 26/1/6 25/4/6 15/4/6
f 23/9/3 28/9/3 26/12/3 13/12/3
f 21/13/1 27/13/1 28/15/1 23/15/1
